# xmcd CD database file
#
# Track frame offsets:
#	150
#	20379
#	37884
#	60573
#	83315
#	110632
#	141452
#	161291
#	179395
#
# Disc length: 2660 seconds
#
# Revision: 0
# Processed by: cddbd v1.5.2PL0 Copyright (c) Steve Scherf et al.
# Submitted via: CDex 1.70beta2
#
DISCID=670a6209
DTITLE=White Day - Park Dong Hwa - Jazz vol. 1
DYEAR=1900
DGENRE=Jazz
TTITLE0=White Day
TTITLE1=Coming Home
TTITLE2=A Mother's Heart
TTITLE3=22 Hours
TTITLE4=Eternal Love
TTITLE5=Sad Story
TTITLE6=True Love
TTITLE7=Loving My Nephew
TTITLE8=Grace
EXTD=
EXTT0=
EXTT1=
EXTT2=
EXTT3=
EXTT4=
EXTT5=
EXTT6=
EXTT7=
EXTT8=
PLAYORDER=
